<svg xmlns="http://www.w3.org/2000/svg" width="128" height="128" viewBox="0 0 128 128"><path d="M64 2.167C29.85 2.167 2.167 29.85 2.167 64S29.85 125.833 64 125.833 125.833 98.15 125.833 64 98.15 2.167 64 2.167zm-1.662 12.882c3.154 3.329 5.818 6.483 11.303 8.477s14.793 3.158 20.279 11.137c3.657 5.319 3.41 9.419 2.66 13.297-.929 4.802-1.158 7.606-1.818 14.419l-6.628-.011c1.434-12.376-.508-19.46-3.688-24.548-2.918-4.669-12.3-7.48-17.453-9.973S52.697 14.384 52.697 14.384s6.649-2.494 9.641.665zm-8.997 3.106l.935 1.247S32.54 43.389 31.836 64.001h-1.371c.748-22.486 22.876-45.846 22.876-45.846zm40.578 75.183c-5.485 7.978-14.793 9.142-20.279 11.137-5.485 1.995-8.149 5.148-11.303 8.477-2.992 3.158-9.641.665-9.641.665s9.142-10.97 14.295-13.464c5.153-2.493 14.535-5.305 17.453-9.973 3.18-5.088 5.122-9.676 3.688-22.052l6.628-.011c.66 6.813.889 7.122 1.818 11.923.752 3.879.998 7.979-2.659 13.298zM30.465 66h1.371c.704 20 22.44 43.879 22.44 43.879l-.935 1.186S31.213 88 30.465 66zm72.035 2.072c-1.849.229-2.223.171-2.223-.891 0-.81-.042-1.182-.042-1.182H29.343s-2.493 4-3.491 4h-9.225l1.995-4H27v-2h-8.378l-1.995-4h9.225c.997 0 3.491 4 3.491 4H100.235s.042-1.371.042-2.182c0-1.061.374-1.839 2.223-1.61 2.393.296 8.83 3.901 8.83 3.901s-6.436 3.669-8.83 3.964z"/></svg>