<svg xmlns="http://www.w3.org/2000/svg" width="128" height="128" viewBox="0 0 128 128"><path d="M64 2.167C29.85 2.167 2.167 29.85 2.167 64S29.85 125.833 64 125.833 125.833 98.15 125.833 64 98.15 2.167 64 2.167zM48.448 31.213l17.422.016c1.377 0 2.524.783 2.524 2.16L68.363 36H45.955l-.031-2.611c0-1.377 1.147-2.176 2.524-2.176zM41 74.846C41 76.498 38.598 77 36.945 77H26.598L13.965 60.125 26.598 43h10.347c1.653 0 4.055.773 4.055 2.425v29.421zM64 118H51V89h13v29zm1.87-30.709l-17.422.016c-1.377 0-2.524-.558-2.524-1.935L45.955 83h22.408l.031 2.372c0 1.377-1.147 1.919-2.524 1.919zM71 78.008A2.993 2.993 0 0 1 68.008 81H45.992A2.993 2.993 0 0 1 43 78.008V40.992A2.993 2.993 0 0 1 45.992 38h22.016A2.993 2.993 0 0 1 71 40.992v37.016zM107.134 85H93.753l-17.711-5.825C74.38 78.635 73 77.495 73 75.843V44.677c0-1.652 1.546-2.593 3.042-3.092L93.088 36h14.045c.001 0 7.481 26 .001 49z"/></svg>