<svg xmlns="http://www.w3.org/2000/svg" width="128" height="128" viewBox="0 0 128 128"><path d="M64 2.167C29.85 2.167 2.167 29.85 2.167 64S29.85 125.833 64 125.833 125.833 98.15 125.833 64 98.15 2.167 64 2.167zM23.003 29.655c2.182-2.431 4.239-4.737 5.423-3.678L51.24 49.351l1.091-1.091 2.649 2.711s1.175 3.094 7.407 7.389l-4.079 2.148-2.859 3.781c-.079-1.099-.504-2.389-1.778-3.469-2.867-2.431-6.233.187-6.233.187l-4.052-3.553 3.553-3.553-21.256-18.2s-1.669.346-3.054-.748c-1.184-.935-1.808-2.867.374-5.298zM70.998 83.51s3.74.312 1.683-2.805c-1.017-1.54-3.754-4.862-7.038-7.881 0 0 6.626-6.164 8.678-4.144a86.886 86.886 0 0 0 15.564 12.15s1.745 6.607 15.77 17.079c0 0-19.759-.499-34.657-14.399zm34.328-48.557c-1.385 1.094-3.054.748-3.054.748L81.017 53.902l3.553 3.553-4.052 3.553s-3.366-2.618-6.233-.187c-2.867 2.431-1.434 5.922-1.434 5.922-6.42.436-15.521 10.846-17.578 13.962s1.683 2.805 1.683 2.805C42.059 97.41 22.3 97.909 22.3 97.909 36.325 87.437 38.07 80.83 38.07 80.83c14.461-8.851 21.505-18.887 21.505-18.887 11.531-6.046 13.401-10.97 13.401-10.97l2.649-2.711 1.091 1.091L99.53 25.979c1.184-1.06 3.241 1.247 5.423 3.678s1.557 4.361.373 5.296z"/></svg>