<svg xmlns="http://www.w3.org/2000/svg" width="128" height="128" viewBox="0 0 128 128"><path d="M64.125 1.926c-34.352 0-62.199 27.847-62.199 62.199s27.847 62.199 62.199 62.199 62.199-27.847 62.199-62.199S98.476 1.926 64.125 1.926zm-.334 118.546c-3.158 0-6.255-.263-9.272-.761L93.344 65.38s.878.376 2.006-.314c.969-.592 8.276-9.53 8.276-9.53l-4.013-4.326s-7.022 9.28-7.9 10.534c-.878 1.254-.376 2.132-.376 2.132l-39.428 55.342a56.136 56.136 0 0 1-14.481-5.262c1.819-2 4.063-6.233 7.385-11.833 4.389-7.399 5.199-17.634 3.762-26.46-1.755-10.786-11.734-17.692-.125-34.486 12.916-18.685 24.99-17.759 37.62-13.042 10.408 3.887 11.662 19.061 11.662 19.061l10.157 11.035c.125.125 1.63-.878 4.891-4.891s-1.63-12.164-3.01-14.547c-1.471-2.541-9.53-14.045-23.826-18.81S54.845 16.221 47.32 18.98c-6.929 2.541-15.55 9.781-20.566 18.81s-2.006 35.112-2.759 41.633c-.577 4.999-6.308 10.73-8.954 13.135-4.934-8.39-7.766-18.164-7.766-28.602 0-31.212 25.302-56.514 56.514-56.514s56.514 25.302 56.514 56.514-25.301 56.516-56.512 56.516z"/></svg>