<svg xmlns="http://www.w3.org/2000/svg" width="128" height="128" viewBox="0 0 128 128"><path d="M83.604 43.372l13.606-4.593c-11.892-2.995-17.333-14.43-17.333-14.43l-1.745 14.855-32.809 3.176-4.499-14.148c-2.995 11.892-14.43 17.333-14.43 17.333l14.372 2.074.506 28.926 11.257 9.419 29.108-5.117 4.884 14.469c2.995-11.892 14.43-17.333 14.43-17.333l-14.565-2.234-2.782-32.397zM69.788 67.308L64.052 70.8l-8.606.668-.903-8.584 2.395-6.274 5.457-3.289 7.739.504 1.898 7.52-2.244 5.963z"/><path d="M64.125 1.926c-34.352 0-62.199 27.847-62.199 62.199s27.847 62.199 62.199 62.199 62.199-27.847 62.199-62.199S98.476 1.926 64.125 1.926zm-.334 118.546c-11.762 0-22.684-3.595-31.729-9.743l18.796-22.577-10.988-9.147-18.529 22.256C12.588 91.309 7.277 78.254 7.277 63.958c0-31.212 25.302-56.514 56.514-56.514s56.514 25.302 56.514 56.514-25.303 56.514-56.514 56.514z"/></svg>