<svg xmlns="http://www.w3.org/2000/svg" width="128" height="128" viewBox="0 0 128 128"><path d="M64.125 1.926c-34.352 0-62.199 27.847-62.199 62.199s27.847 62.199 62.199 62.199 62.199-27.847 62.199-62.199S98.476 1.926 64.125 1.926zm-.334 118.546a56.32 56.32 0 0 1-22.686-4.742c8.09-1.679 19.601-6.104 25.446-17.977 8.347-16.953 27.39-27.908 27.39-27.908-5.303-14.112-17.31-16.927-17.31-16.927-3.733 10.354-15.337 22.044-28.065 28.117-8.507 4.059-13.329 21.594-15.274 30.51a56.736 56.736 0 0 1-21.435-25.269c3.164-.452 15.814-2.745 20.249-13.957 4.431-11.202 15.968-19.145 15.968-19.145-4.096-8.694-11.871-9.865-11.871-9.865-1.839 6.772-8.611 14.797-16.386 19.312-5.93 3.443-7.978 17.919-8.478 22.408a56.344 56.344 0 0 1-4.062-21.071c0-31.212 25.302-56.514 56.514-56.514 17.347 0 32.865 7.818 43.232 20.12L88.231 44.516s10.375 3.472 13.805 13.052l13.942-15.329a56.339 56.339 0 0 1 4.327 21.719c0 31.212-25.303 56.514-56.514 56.514z"/><path d="M52.337 48.993c-1.527-3.718-4.682-8.611-10.784-10.199-6.103-1.588-9.28-3.929-11.37-6.27 0 0 1.254 5.267 3.26 6.939 2.006 1.672 5.565 2.577 9.029 4.347 3.762 1.923 7.775 9.363 9.948 11.537 2.174 2.174 6.688 2.842 7.942 2.257.001 0-6.102-3.929-8.025-8.611zM60.948 15.637s-2.006 3.344-2.675 4.347c-.334.502 0 1.338 0 1.338L43.141 37.373s6.772 1.672 9.444 7.583l13.62-17.652s.878.199 1.321-.21c.886-.818 3.874-3.324 3.874-3.324-4.595-7.415-10.452-8.133-10.452-8.133zM101.136 63.849c-1.917-6.007-6.228-14.056-15.569-17.312-9.34-3.257-14.01-7.319-16.981-11.243 0 0 1.293 8.393 4.218 11.262 2.925 2.868 8.374 4.734 13.565 7.941 5.638 3.483 10.969 15.624 14.092 19.298 3.123 3.674 10.096 5.291 12.131 4.535.001-.002-9.043-6.918-11.456-14.481z"/></svg>