<svg xmlns="http://www.w3.org/2000/svg" width="128" height="128" viewBox="0 0 128 128"><path d="M74.157 22.492L21.656 35.701l.836 30.431 15.884.836-7.524 16.386 16.219-6.186 6.019 31.267L71.147 86.53l7.022 6.186.836-19.061 21.569 12.038 12.206-25.582-38.623-37.619zM53.763 56.601l-5.058-3.233 4.155-4.687-2.71-1.778-4.516 4.903-7.467-4.526 10.839-9.698 13.489 9.052-8.732 9.967zm24.932 1.131l-1.011-5.4-3.71.859.92 5.523-4.05 1.227-1.012-10.063 17.442-5.645 2.217 10.063-10.796 3.436z"/><path d="M64.125 1.926c-34.352 0-62.199 27.847-62.199 62.199s27.847 62.199 62.199 62.199 62.199-27.847 62.199-62.199S98.476 1.926 64.125 1.926zm-.334 118.546c-31.212 0-56.514-25.302-56.514-56.514S32.579 7.444 63.791 7.444s56.514 25.302 56.514 56.514-25.303 56.514-56.514 56.514z"/></svg>