<svg xmlns="http://www.w3.org/2000/svg" width="128" height="128" viewBox="0 0 128 128"><path d="M64.125 1.926c-34.352 0-62.199 27.847-62.199 62.199s27.847 62.199 62.199 62.199 62.199-27.847 62.199-62.199S98.476 1.926 64.125 1.926zm-.334 118.546a56.267 56.267 0 0 1-34.789-11.976c7.071-6.864 33.416-32.45 36.378-35.509 5.1-5.267 11.704 2.842 11.704 2.842s11.202 16.219 12.54 17.222c1.338 1.003 3.01 1.588 4.765.167 1.756-1.421.334-3.678.334-3.678s-8.668-10.251-10.701-14.463c-2.341-4.849 2.926-5.434 2.926-5.434s23.575 2.592 24.662 2.508c1.087-.084 2.341-.585 2.424-2.842.084-2.257-2.006-2.592-2.006-2.592s-22.526-4.709-24.411-5.434c-2.174-.836-3.432-2.525-3.762-3.846-.502-2.006 2.09-2.508 2.09-2.508s21.318-5.016 23.325-5.936c2.006-.92 2.09-2.842 1.338-4.514-.752-1.672-4.347-1.421-4.347-1.421s-16.887 3.26-19.73 3.762c-2.842.502-5.106.691-7.524-.836-3.177-2.006-.418-4.682-.418-4.682S95.475 27.09 97.064 24.833c1.588-2.257 1.087-3.511-.585-4.849s-4.431.752-4.431.752-9.865 6.688-14.296 10.283c-4.431 3.595-18.727 14.63-22.907 15.048-4.18.418-16.971-5.768-18.643-6.604-1.672-.836-3.26-.167-3.929 1.756s.92 4.932 3.01 6.354c2.09 1.421 10.534 4.598 14.547 6.437 4.013 1.839.669 6.354.669 6.354L11.58 85.62a56.342 56.342 0 0 1-4.304-21.662c0-31.212 25.302-56.514 56.514-56.514s56.514 25.302 56.514 56.514-25.302 56.514-56.513 56.514z"/></svg>