<svg xmlns="http://www.w3.org/2000/svg" width="128" height="128" viewBox="0 0 128 128"><path d="M64 2.167C29.85 2.167 2.167 29.85 2.167 64S29.85 125.833 64 125.833 125.833 98.15 125.833 64 98.15 2.167 64 2.167zM46.464 75.959c-14.96-7.48-31.249 6.769-31.249 6.769L30.341 42h16.206l-.083 33.959zM58 116h-9V29.219c0-1.653.757-2.219 2.409-2.219h3.989c1.653 0 2.602.566 2.602 2.219V116zm9.74-5.625c18.118-23.935 8.685-36.166 8.685-36.166-8.772-2.076-15.915 1.634-15.915 1.634l-.132-33.64s19.17.965 35.127-12.831c0 0 16.265 11.451 16.431 33.89.166 22.44-15.274 44.786-44.196 47.113z"/></svg>