<svg xmlns="http://www.w3.org/2000/svg" width="128" height="128" viewBox="0 0 128 128"><path d="M64.125 1.926c-34.352 0-62.199 27.847-62.199 62.199s27.847 62.199 62.199 62.199 62.199-27.847 62.199-62.199S98.476 1.926 64.125 1.926zm-.334 118.546c-11.688 0-22.546-3.548-31.558-9.626l38.183-43.715-10.389-9.074L21.819 101.8C12.78 91.781 7.277 78.513 7.277 63.958c0-31.212 25.302-56.514 56.514-56.514s56.514 25.302 56.514 56.514-25.303 56.514-56.514 56.514z"/><path d="M66.12 11.431L42.197 38.82l49.301 43.062 23.924-27.389L66.12 11.431zM85.113 51.83a7.9 7.9 0 1 1-11.9-10.395 7.9 7.9 0 0 1 11.9 10.395z"/></svg>