<svg xmlns="http://www.w3.org/2000/svg" width="128" height="128" viewBox="0 0 128 128"><path d="M89.37 62.876L73.631 77.192l-11.724-1.118 5.856-3.638 9.068-20.317-19.994 9.727-3.454 5.966L51.9 56.129l13.819-16.178.21-1.659-1.546-.567-16.289 9.359-4.545 11.895-.096 8.988-5.078.434.178 23.225 23.227-.54.279-5.085 8.982-.375 11.749-4.912 8.846-16.573-.614-1.528z"/><path d="M53.235 56.434l.91 7.169 1.549-3.04 23.505-11.097-9.914 23.922-3.344 1.648 7.104.599 24.324-21.132 3.56-27.636-27.146 5.124z"/><path d="M64.125 1.926c-34.352 0-62.199 27.847-62.199 62.199s27.847 62.199 62.199 62.199 62.199-27.847 62.199-62.199S98.476 1.926 64.125 1.926zm-.334 118.546c-10.621 0-20.556-2.932-29.044-8.027l19.056-19.66-16.653.275-.275-16.683-19.38 19.995A56.249 56.249 0 0 1 7.277 63.958c0-31.212 25.302-56.514 56.514-56.514s56.514 25.302 56.514 56.514-25.303 56.514-56.514 56.514z"/></svg>