<svg xmlns="http://www.w3.org/2000/svg" width="128" height="128" viewBox="0 0 128 128"><path d="M64 2.167C29.85 2.167 2.167 29.85 2.167 64S29.85 125.833 64 125.833 125.833 98.15 125.833 64 98.15 2.167 64 2.167zm23.188 105.216c-15.535 2.993-27.177-8.851-27.177-8.851s4.588 1.765 6.358-.208c1.454-1.621.831-2.784-.457-4.363-1.104-1.353-4.28-4.862-5.485-8.976-1.205-4.114-3.241-8.851-7.106-10.015 0 0-4.592-1.496-9.08-1.932S30.59 69.735 33.395 61.32c0 0 2.369 3.428 6.358 3.241s3.615-2.556 3.553-3.179c-.062-.623.187-3.054-3.802-4.426s-16.144-4.8-13.339-13.401c0 0 .81 3.802 3.553 3.553 2.743-.249 4.488-2.244 4.426-3.802s-.686-7.168-15.396-8.165c0 0 8.29-3.241 14.212-3.366 5.922-.125 9.724 1.745 11.656 4.052 1.932 2.306 3.491 11.344 6.171 14.087s6.441 4.779 8.477 4.737c1.874-.038 4.301-.81 4.488-4.924s-4.052-4.363-6.296-4.426c0 0 3.428-3.865 7.355-3.802 3.927.062 6.143 1.829 7.729 4.176 1.517 2.244 2.081 9.709 2.68 10.908.499.997 1.839 2.961 5.859 3.054 3.614.084 10.409-2.431 6.233-9.848 0 0 16.917 2.217 22.814 21.318 5.734 18.574-9.35 33.658-22.938 36.276z"/></svg>