<svg xmlns="http://www.w3.org/2000/svg" width="128" height="128" viewBox="0 0 128 128"><path d="M64.125 1.926c-34.352 0-62.199 27.847-62.199 62.199s27.847 62.199 62.199 62.199 62.199-27.847 62.199-62.199S98.476 1.926 64.125 1.926zm-.334 118.546c-31.212 0-56.514-25.302-56.514-56.514S32.579 7.444 63.791 7.444a56.33 56.33 0 0 1 21.899 4.401l-4.761 4.126-.502 2.884s-4.514 2.257-5.894 4.013c-1.379 1.756-3.26.376-3.26.376s.502 3.637-1.254 6.019-3.135 1.881-4.138 4.514c-1.003 2.633-4.765 2.884-4.765 2.884s-2.383 3.135-3.762 3.386-1.756 4.138-2.759 4.891c-1.003.752-4.64 3.637-4.64 3.637L34.28 65.254 51.209 54.72l5.392-5.016 1.003-1.505s3.135-.125 4.264-1.254c1.129-1.129 2.759.752 3.26.125.502-.627-.125-4.891-.125-4.891l8.026-9.405s1.003-.878 2.383-1.003c1.379-.125 7.022-7.399 7.022-7.399s4.514-4.264 6.27-5.518c1.508-1.077 2.46-3.539 2.699-4.214a56.558 56.558 0 0 1 7.996 5.434l-.663 1.915-4.891 2.132-9.781 11.537-1.63 2.759-2.634.628-3.01 6.772s-8.653 8.276-9.781 8.402-4.64 2.132-5.643 2.257-2.884 1.254-2.884 1.254-.627 3.01-1.756 4.514c-1.129 1.505-6.521 4.138-6.521 4.138s.251 2.132-.502 3.26c-.752 1.129-7.022 4.013-7.022 4.013l-9.53 8.653 14.045-8.903 8.151-4.389 2.132-2.884s1.881-.878 3.511-1.254c1.63-.376 4.389-3.637 4.389-3.637s-.752-1.379.878-2.132c1.63-.752 3.762-1.254 3.762-1.254l2.383-2.759 2.633.376s3.26-2.257 3.26-3.135.376-2.257.376-2.257 1.129.752 1.63.125c.502-.627.752-1.756.752-1.756s-1.505-1.254-.627-1.63c.878-.376 2.257-.376 2.257-.376s.878-1.505 1.881-2.383c1.003-.878 6.145-4.891 6.145-4.891l.502-2.006 2.383.627.125-1.003-1.003-2.006 1.63.251.125-2.884s3.637-1.003 3.637-1.881c0-.878-.627-2.006-.125-2.257.502-.251 3.01.125 3.01.125l.376-2.383 2.383-.502.35-.896a56.607 56.607 0 0 1 5.268 6.192c-1.136 1.761-5.676 8.72-6.88 9.377-1.379.752-1.752 3.416-1.752 3.416S99.613 45 98.359 45h-1.881l-2.006 4.233-1.63 1.113s-.752 2.312-1.379 2.939c-.627.627-2.884.968-2.884.968s-.627 1.613-1.254 2.741-3.637 3.628-3.637 3.628l-2.759 2.002s.627 1.503-.878 2.506-3.386 4.137-3.386 4.137-3.135 2.131-3.26 2.884c-.125.752-1.003 1.505-1.003 1.505s-3.26.376-4.138 1.254c-.878.878-1.881 3.762-1.881 3.762s-3.511 1.254-4.389 2.257c-.878 1.003-1.129 2.508-1.881 3.386s-7.399 6.395-7.399 6.395 5.894-1.129 9.907-4.64 2.884-3.135 4.765-4.389c1.881-1.254 2.884-.752 3.887-1.63 1.003-.878 3.386-3.511 3.386-3.511l.752-1.756s1.254 0 2.006-.125c.752-.125 2.759-1.505 2.759-1.505l.752-3.26s0-.251 1.63-1.254c1.63-1.003 2.633-1.63 2.633-1.63l1.379-3.637 7.9-7.649.627-1.756s1.129-1.881 2.132-1.379a5.589 5.589 0 0 1 1.63 1.254l1.505-2.759 2.383-5.518s2.633-.251 3.511-1.379 4.389-5.518 4.389-5.518l1.709-3.619a56.262 56.262 0 0 1 4.796 10.266c-.396.65-.736 1.127-.736 1.127l-1.63 2.633-3.511 1.003-2.132 4.514-2.006 3.511-2.383.878s-1.254 1.129-1.254 1.63c0 .502-1.756.502-1.756.502s-3.01 3.511-3.637 4.514c-.627 1.003-4.013 2.508-4.013 2.508-.878 1.379-.376 2.759-1.129 4.013-.752 1.254-2.132-.878-2.132-1.254s-1.756 2.132-1.881 3.135c-.125 1.003-1.254 2.884-1.254 2.884s-1.63.251-2.257.502c-.627.251-.627 3.135-1.129 3.637-.502.502-2.759 1.881-3.511 2.884-.752 1.003-1.63 3.386-1.63 3.386l-5.267 5.643s11.161-7.9 13.293-10.032C89.329 80.802 98.232 72.4 98.232 72.4l2.132.627 2.508-5.392s.376 0 1.254-.502 4.891-4.264 6.395-7.649c1.505-3.386 3.386-4.013 4.013-5.518.627-1.505 1.254-1.881 2.006-2.132.456-.152 1.188-1.271 1.918-2.241a56.59 56.59 0 0 1 1.844 14.363c.003 31.214-25.3 56.516-56.511 56.516z"/></svg>