<svg xmlns="http://www.w3.org/2000/svg" width="128" height="128" viewBox="0 0 128 128"><ellipse cx="79.209" cy="64.125" rx="8.602" ry="9.848"/><path d="M66.493 76.092c-1.371-3.615-2.867-3.241-2.867-3.241s-1.496-.374-2.867 3.241-4.488 10.098-4.488 10.098-1.122 2.369 1.496 2.369c0 0 6.42-.499 11.718 0 2.606.245 1.496-2.369 1.496-2.369s-3.116-6.482-4.488-10.098z"/><ellipse cx="48.043" cy="64.125" rx="8.602" ry="9.848"/><path d="M64 2.167C29.85 2.167 2.167 29.85 2.167 64S29.85 125.833 64 125.833 125.833 98.15 125.833 64 98.15 2.167 64 2.167zM50.103 105.638c-3.906.457-5.889 0-5.889 0-1.33-.083-1.214-.998-1.214-.998v-2.826c0-4.987 4-5.07 4-5.07s4 .083 4 5.07v2.826s.427.843-.897.998zm10.985-.499c-3.906.457-5.382 0-5.382 0-1.33-.083-.707-.997-.707-.997v-2.826c0-4.987 3.5-5.07 3.5-5.07s3.5.083 3.5 5.07v2.826c.001 0 .413.842-.911.997zm10.986 0c-3.906.457-6.374 0-6.374 0-1.33-.083-1.699-.997-1.699-.997v-2.826c0-4.987 4.5-5.07 4.5-5.07s4.5.083 4.5 5.07v2.826c-.001 0 .396.842-.927.997zm11.485.499c-3.906.457-6.617 0-6.617 0-1.33-.083-1.942-.998-1.942-.998v-2.826c0-4.987 5-5.07 5-5.07s5 .083 5 5.07v2.826s-.118.843-1.441.998zm12.355-26.554s2.493 3.117-1.371 7.231c-3.865 4.114-2.743 2.992-4.613 5.859s-2.638 2.5-4.239 2.244c-22.627-3.615-44.131 0-44.131 0-1.621 0-2.369.623-4.239-2.244-1.87-2.867-.748-1.745-4.613-5.859s-1.371-7.231-1.371-7.231l3.241-4.862c-4.363-7.231-12.84-21.442-3.117-38.397S63.626 19.37 63.626 19.37s22.44-.499 32.163 16.456 1.247 31.166-3.117 38.397l3.242 4.861z"/></svg>