<svg xmlns="http://www.w3.org/2000/svg" width="128" height="128" viewBox="0 0 128 128"><path d="M68.799 29.838c-3.05 0-6.028.304-8.907.885l-5.049-7.381c3.509-3.264 2.04-7.427-1.551-9.875-2.814-1.918-9.712.979-9.712.979l-5.468-5.958s-6.692 1.795-12.65 6.039-11.099 12.16-11.099 12.16l4.489 5.55s-6.79 5.269-1.795 11.262c2.856 3.428 7.59.816 7.59.816l5.785 7.144a44.633 44.633 0 0 0-6.47 23.216c0 24.763 20.074 44.837 44.837 44.837s44.837-20.074 44.837-44.837-20.074-44.837-44.837-44.837zm-38.847 9.254s4.57-9.141 17.547-12.976l4.325 5.876s-10.283 4.489-17.139 12.731l-4.733-5.631zm65.779 53.374c-5.186 2.204-10.61-1.143-8.651-6.855 0 0 11.099.49 15.343-4.57 0 0-.163 8.651-6.692 11.425zM77.45 78.429c-17.22-.816-28.727-17.22-28.727-17.22l-3.509 10.12c-14.119.326-9.222-12.16-9.222-12.16.01-.016 1.269-2.664 1.716-3.395C44.97 43.907 55.63 38.294 68.8 38.294c17.519 0 35.828 20.059 34.848 29.363C102.166 81.73 77.45 78.429 77.45 78.429z"/></svg>