<svg xmlns="http://www.w3.org/2000/svg" width="128" height="128" viewBox="0 0 128 128"><path d="M113.678 46.145s3.232-11.448-2.309-16.989c-5.278-5.278-6.268-4.123-10.061-5.113 0 0-3.958-10.061-7.917-12.04-3.959-1.979-3.134.99-2.474 2.144.66 1.155 1.649 8.907.99 10.721 0 0-6.268 4.618-7.752 6.597 0 0-5.113-2.804-10.226-2.474-5.113.33-1.814 2.474-.825 2.639.99.165 6.268 4.288 4.948 6.597L71.125 48.29l16.164 19.957s15.669-9.237 19.628-14.35c0 0 6.597.66 8.577 5.608 1.979 4.948 2.804-.165 2.969-1.155.163-.989 1.318-7.421-4.785-12.205z"/><path d="M53.146 33.61s-.34-10.575 4.783-16.164c3.629-3.958-.721-3.309-2.309-2.969-2.309.495-11.051 7.422-14.02 10.721 0 0-8.247-2.804-14.185 1.155-5.938 3.959-6.927 9.731-6.927 12.04 0 0-9.566 4.618-10.721 7.257-1.155 2.639.165 3.959 2.639 2.969 2.474-.99 7.752-2.309 9.896-1.814l2.804 3.958s-3.794 12.865-2.804 16.494c.99 3.629 1.979 2.474 2.639 1.814.66-.66 5.443-8.247 8.577-10.061l60.202 45.853 9.896-9.731-50.47-61.522z"/><path d="M31.21 95.627l10.556 9.566 20.617-18.968-13.855-10.226zM25.437 97.441c-1.649-1.32-2.828-1.681-5.608.495-3.794 2.969-.825 6.103-.825 6.103s11.381 11.216 12.865 12.205c1.484.99 3.746 1.432 6.268-.825 3.134-2.804.33-5.773.33-5.773S27.086 98.76 25.437 97.441zM110.215 96.616c-1.155.495-11.051 7.587-13.36 12.535 0 0-2.639 3.299 0 6.268s4.948 1.484 5.938.66c.99-.825 13.195-12.205 13.195-12.205s2.144-2.804-.165-5.773c-2.31-2.969-4.454-1.98-5.608-1.485z"/></svg>