<svg xmlns="http://www.w3.org/2000/svg" width="128" height="128" viewBox="0 0 128 128"><path d="M113.699 35.604c-11.596-1.054-20.633 8.434-22.59 10.392s-4.999 9.322-4.217 13.102c.904 4.367 2.861 4.066 1.355 15.06s-14.91 18.223-17.922 22.741c-3.012 4.518-2.108 10.241-2.108 10.241 5.271.301 5.12-5.271 13.404-6.777 6.547-1.19 15.512-3.012 22.741-9.789 6.131-5.748 8.584-18.373 7.078-26.807-1.506-8.434 2.861-16.717 3.765-18.374.904-1.657 6.175-5.572 6.175-5.572s3.915-3.163-7.681-4.217zM89 42.231c-1.205-5.422.904-12.651.904-12.651-4.819-1.807-12.5 6.627-13.855 9.337-1.355 2.711 5.12 10.392 5.12 10.392s8.302-4.958 7.831-7.078z"/><path d="M73.488 87.411c7.363-6.588 8.735-11.145 9.639-18.675.904-7.53-5.12-15.663-9.488-24.247-4.367-8.584-9.491-23.642-9.491-23.642s-4.516 15.25-8.536 24.003-9.713 17.12-8.508 24.608c1.205 7.488 2.758 11.986 10.379 18.273 2.962 2.443 4.448 1.932 5.743 4.141 1.294 2.209 1.808 3.247 2.41 3.223.602 0 1.074-1.058 2.279-3.317 1.205-2.258 2.712-1.807 5.573-4.367z"/><path d="M39.753 74.158c-1.506-10.994.452-10.693 1.355-15.06.782-3.78-2.259-11.145-4.217-13.102S25.898 34.55 14.301 35.604C2.705 36.658 6.62 39.821 6.62 39.821s5.271 3.916 6.175 5.572c.904 1.657 5.271 9.94 3.765 18.374-1.506 8.434.947 21.059 7.078 26.807 7.229 6.777 16.195 8.599 22.741 9.789 8.283 1.506 8.133 7.078 13.404 6.777 0 0 .904-5.723-2.108-10.241S41.259 85.152 39.753 74.158zM39 42.231c-.471 2.12 7.831 7.078 7.831 7.078s6.476-7.681 5.12-10.392c-1.355-2.711-9.036-11.145-13.855-9.337 0 0 2.109 7.229.904 12.651z"/></svg>