<?xml version="1.0" encoding="utf-8"?>
<!DOCTYPE svg PUBLIC "-//W3C//DTD SVG 1.1//EN" "http://www.w3.org/Graphics/SVG/1.1/DTD/svg11.dtd">
<svg version="1.1" xmlns="http://www.w3.org/2000/svg" xmlns:xlink="http://www.w3.org/1999/xlink" x="0px" y="0px" width="128px"
	 height="128px" viewBox="0 0 128 128" enable-background="new 0 0 128 128" xml:space="preserve">
	<path d="M58.366,11.323c4.47,4.882,29.6,39.576,31.167,41.995c2.278,3.516,2.477,9.11,2.397,12.307
		c0.44,21.537-8.99,49.607-10.309,52.484c-1.225,2.672-2.078,6.573-7.552,1.498c-4.955-4.635-33.444-44.592-35.602-49.986
		s-1.678-9.35-1.678-9.35c5.634-34.883,15.943-49.747,15.943-49.747C54.65,8.127,55.329,8.007,58.366,11.323z M59.083,95.395
		c6.13,8.483,12.907,17.281,14.807,19.058c4.847,4.493,5.274-0.12,6.173-2.517c0.558-1.488,4.568-14.17,7.023-28.224l-5.705-6.578
		l-4.595,18.62L64.879,82.607L59.083,95.395z M76.107,58.713l-9.05-8.99l5.222-14.93c-5.75-7.808-11.44-15.38-13.261-17.368
		c-2.689-2.936-3.29-2.83-4.988-0.708c0,0-4.693,6.767-9.188,21.983l14.484,12.221l-1.678,11.747L41.664,49.962
		c-0.606,2.882-1.221,7.525-1.75,10.8c0,0-0.425,3.502,1.486,8.278c0.967,2.417,7.907,12.675,15.094,22.749l7.226-16.055
		l11.268,11.468l4.555-18.86l8.148,11.593c0.713-4.899,1.137-9.847,1.043-14.432c0.071-2.83-0.106-7.783-2.123-10.896
		c-0.464-0.717-3.268-4.638-6.941-9.699L76.107,58.713z M81.501,5.25l-6.473,10.429l-2.278,10.189l5.994,7.432l3.836-17.142
		L81.501,5.25z M22.285,17.836l15.583,20.738l2.997-8.87L28.158,13.281l-7.912-4.435L22.285,17.836z M107.753,122.604l-2.877-11.388
		L91.69,95.154l-2.757,10.549l8.511,11.867L107.753,122.604z M49.256,112.175l0.599,11.268l8.031-7.912l2.038-7.792l-6.713-9.23
		L49.256,112.175z"/>
</svg>
