<?xml version="1.0" encoding="utf-8"?>
<!DOCTYPE svg PUBLIC "-//W3C//DTD SVG 1.1//EN" "http://www.w3.org/Graphics/SVG/1.1/DTD/svg11.dtd">
<svg version="1.1" xmlns="http://www.w3.org/2000/svg" xmlns:xlink="http://www.w3.org/1999/xlink" x="0px" y="0px" width="128px"
	 height="128px" viewBox="0 0 128 128" enable-background="new 0 0 128 128" xml:space="preserve">
<path d="M113.699,35.604c-11.596-1.054-20.633,8.434-22.59,10.392s-4.999,9.322-4.217,13.102c0.904,4.367,2.861,4.066,1.355,15.06
	s-14.91,18.223-17.922,22.741c-3.012,4.518-2.108,10.241-2.108,10.241c5.271,0.301,5.12-5.271,13.404-6.777
	c6.547-1.19,15.512-3.012,22.741-9.789c6.131-5.748,8.584-18.373,7.078-26.807c-1.506-8.434,2.861-16.717,3.765-18.374
	c0.904-1.657,6.175-5.572,6.175-5.572S125.295,36.658,113.699,35.604z"/>
<path d="M89,42.231c-1.205-5.422,0.904-12.651,0.904-12.651c-4.819-1.807-12.5,6.627-13.855,9.337
	c-1.355,2.711,5.12,10.392,5.12,10.392S89.471,44.351,89,42.231z"/>
<path d="M73.488,87.411c7.363-6.588,8.735-11.145,9.639-18.675c0.904-7.53-5.12-15.663-9.488-24.247
	c-4.367-8.584-9.491-23.642-9.491-23.642s-4.516,15.25-8.536,24.003s-9.713,17.12-8.508,24.608
	c1.205,7.488,2.758,11.986,10.379,18.273c2.962,2.443,4.448,1.932,5.743,4.141c1.294,2.209,1.808,3.247,2.41,3.223
	c0.602,0,1.074-1.058,2.279-3.317C69.12,89.52,70.627,89.971,73.488,87.411z"/>
<path d="M39.753,74.158c-1.506-10.994,0.452-10.693,1.355-15.06c0.782-3.78-2.259-11.145-4.217-13.102S25.898,34.55,14.301,35.604
	C2.705,36.658,6.62,39.821,6.62,39.821s5.271,3.916,6.175,5.572c0.904,1.657,5.271,9.94,3.765,18.374
	c-1.506,8.434,0.947,21.059,7.078,26.807c7.229,6.777,16.195,8.599,22.741,9.789c8.283,1.506,8.133,7.078,13.404,6.777
	c0,0,0.904-5.723-2.108-10.241C54.663,92.381,41.259,85.152,39.753,74.158z"/>
<path d="M39,42.231c-0.471,2.12,7.831,7.078,7.831,7.078s6.476-7.681,5.12-10.392c-1.355-2.711-9.036-11.145-13.855-9.337
	C38.096,29.58,40.205,36.809,39,42.231z"/>
</svg>
