<?xml version="1.0" encoding="utf-8"?>
<!DOCTYPE svg PUBLIC "-//W3C//DTD SVG 1.1//EN" "http://www.w3.org/Graphics/SVG/1.1/DTD/svg11.dtd">
<svg version="1.1" xmlns="http://www.w3.org/2000/svg" xmlns:xlink="http://www.w3.org/1999/xlink" x="0px" y="0px" width="128px"
	 height="128px" viewBox="0 0 128 128" enable-background="new 0 0 128 128" xml:space="preserve">
<path d="M68.799,29.838c-3.05,0-6.028,0.304-8.907,0.885l-5.049-7.381c3.509-3.264,2.04-7.427-1.551-9.875
		c-2.814-1.918-9.712,0.979-9.712,0.979l-5.468-5.958c0,0-6.692,1.795-12.65,6.039s-11.099,12.16-11.099,12.16l4.489,5.55
		c0,0-6.79,5.269-1.795,11.262c2.856,3.428,7.59,0.816,7.59,0.816l5.785,7.144c-4.106,6.772-6.47,14.718-6.47,23.216
		c0,24.763,20.074,44.837,44.837,44.837s44.837-20.074,44.837-44.837S93.562,29.838,68.799,29.838z M29.952,39.092
		c0,0,4.57-9.141,17.547-12.976l4.325,5.876c0,0-10.283,4.489-17.139,12.731L29.952,39.092z M95.731,92.466
		c-5.186,2.204-10.61-1.143-8.651-6.855c0,0,11.099,0.49,15.343-4.57C102.423,81.041,102.26,89.692,95.731,92.466z M77.45,78.429
		c-17.22-0.816-28.727-17.22-28.727-17.22l-3.509,10.12c-14.119,0.326-9.222-12.16-9.222-12.16c0.01-0.016,1.269-2.664,1.716-3.395
		c7.262-11.867,17.922-17.48,31.092-17.48c17.519,0,35.828,20.059,34.848,29.363C102.166,81.73,77.45,78.429,77.45,78.429z"/>
</svg>
