<?xml version="1.0" encoding="utf-8"?>
<!DOCTYPE svg PUBLIC "-//W3C//DTD SVG 1.1//EN" "http://www.w3.org/Graphics/SVG/1.1/DTD/svg11.dtd">
<svg version="1.1" xmlns="http://www.w3.org/2000/svg" xmlns:xlink="http://www.w3.org/1999/xlink" x="0px" y="0px" width="128px"
	 height="128px" viewBox="0 0 128 128" enable-background="new 0 0 128 128" xml:space="preserve">
<path d="M113.678,46.145c0,0,3.232-11.448-2.309-16.989c-5.278-5.278-6.268-4.123-10.061-5.113c0,0-3.958-10.061-7.917-12.04
			c-3.959-1.979-3.134,0.99-2.474,2.144c0.66,1.155,1.649,8.907,0.99,10.721c0,0-6.268,4.618-7.752,6.597
			c0,0-5.113-2.804-10.226-2.474c-5.113,0.33-1.814,2.474-0.825,2.639c0.99,0.165,6.268,4.288,4.948,6.597L71.125,48.29
			l16.164,19.957c0,0,15.669-9.237,19.628-14.35c0,0,6.597,0.66,8.577,5.608c1.979,4.948,2.804-0.165,2.969-1.155
			C118.626,57.361,119.781,50.929,113.678,46.145z"/>
		<path d="M53.146,33.61c0,0-0.34-10.575,4.783-16.164c3.629-3.958-0.721-3.309-2.309-2.969c-2.309,0.495-11.051,7.422-14.02,10.721
			c0,0-8.247-2.804-14.185,1.155c-5.938,3.959-6.927,9.731-6.927,12.04c0,0-9.566,4.618-10.721,7.257
			c-1.155,2.639,0.165,3.959,2.639,2.969c2.474-0.99,7.752-2.309,9.896-1.814l2.804,3.958c0,0-3.794,12.865-2.804,16.494
			c0.99,3.629,1.979,2.474,2.639,1.814c0.66-0.66,5.443-8.247,8.577-10.061l60.202,45.853l9.896-9.731L53.146,33.61z"/>
		<polygon points="31.21,95.627 41.766,105.193 62.383,86.225 48.528,75.999 		"/>
		<path d="M25.437,97.441c-1.649-1.32-2.828-1.681-5.608,0.495c-3.794,2.969-0.825,6.103-0.825,6.103s11.381,11.216,12.865,12.205
			c1.484,0.99,3.746,1.432,6.268-0.825c3.134-2.804,0.33-5.773,0.33-5.773S27.086,98.76,25.437,97.441z"/>
		<path d="M110.215,96.616c-1.155,0.495-11.051,7.587-13.36,12.535c0,0-2.639,3.299,0,6.268c2.639,2.969,4.948,1.484,5.938,0.66
			c0.99-0.825,13.195-12.205,13.195-12.205s2.144-2.804-0.165-5.773C113.513,95.132,111.369,96.121,110.215,96.616z"/>
</svg>
