<?xml version="1.0" encoding="utf-8"?>
<!DOCTYPE svg PUBLIC "-//W3C//DTD SVG 1.1//EN" "http://www.w3.org/Graphics/SVG/1.1/DTD/svg11.dtd">
<svg version="1.1" xmlns="http://www.w3.org/2000/svg" xmlns:xlink="http://www.w3.org/1999/xlink" x="0px" y="0px" width="128px"
	 height="128px" viewBox="0 0 128 128" enable-background="new 0 0 128 128" xml:space="preserve">
	<path d="M37.26,99.014c-3.938,0.151-7.777-0.624-9.239-8.482c-1.212-6.513,10.3-26.355,10.3-26.355
		c-2.423-2.878-5.453-18.933-5.453-18.933c-3.938-1.06-22.568,0.454-22.568,0.454c2.423-3.332,22.72-4.544,22.72-4.544
		c-0.454-9.239,3.181-16.055,6.362-16.51c3.181-0.454,7.725,5.15,7.725,5.15c-0.454-2.272,0.303-20.145,10.3-19.842
		c9.997,0.303,21.962,23.629,21.962,23.629c4.544-0.454,19.387,4.695,19.387,4.695c3.484-1.818,10.148-19.993,10.148-19.993
		c2.121,5.604-7.422,21.811-7.422,21.811c4.544,2.575,10.905,7.422,11.966,12.572c1.06,5.15-8.633,5.604-8.633,5.604
		c3.635,2.423,12.269,7.27,12.875,15.752c0.751,10.513-32.565,10.451-32.565,10.451c-0.909,3.181-13.935,14.541-13.935,14.541
		c0.757,2.878,12.723,18.933,12.723,18.933c-3.787,1.666-15.904-17.267-15.904-17.267c-6.816,4.392-13.935,5.15-16.813,2.878
		c-2.878-2.272,0.303-9.391,0.303-9.391C50.892,95.227,41.198,98.863,37.26,99.014z M88.556,50.242
		c-1.717-4.847-7.472-9.189-7.472-9.189c5.655,0.808,9.997,8.684,9.997,8.684l3.837-6.059c-21.407-13.026-40.29-2.928-40.29-2.928
		c-1.212,8.785,7.169,36.352,7.169,36.352l-4.443,1.818c-3.13-3.433-9.189-31.404-9.189-31.404
		c-3.13,3.534-4.342,11.511-4.342,11.511c-2.221-6.16,2.423-13.228,2.423-13.228l-7.068-0.303
		C41.501,73.265,56.85,81.949,56.85,81.949c9.997-3.837,27.567-24.133,27.567-24.133l3.938,2.827
		c-1.515,3.938-22.518,23.83-22.518,23.83c2.423,0.707,12.42-1.818,12.42-1.818c-1.919,3.433-12.824,3.635-12.824,3.635l3.484,7.195
		C92.696,76.143,91.03,59.179,91.03,59.179c-12.041-7.346-34.458-11.587-34.458-11.587l-0.076-5.377
		C67.25,41.76,88.556,50.242,88.556,50.242z M47.257,41.609l-0.151-6.967c0,0-2.726-2.726-3.787-3.029s-4.544,1.969-4.544,10.148
		L47.257,41.609z M55.436,96.591c4.998,2.726,10.3-1.06,10.3-1.06l-4.241-7.725C58.314,89.169,50.438,93.864,55.436,96.591z
		 M53.77,83.565c0,0-10.148-7.27-12.875-14.238c0,0-6.059,11.057-3.181,15.904C40.592,90.078,52.104,85.382,53.77,83.565z
		 M103.602,73.568c1.969-3.787-9.088-12.723-9.088-12.723c0,9.088-6.513,18.479-6.513,18.479
		C94.665,80.081,101.633,77.355,103.602,73.568z M104.662,54.332c2.121-3.181-6.059-8.936-6.059-8.936l-4.241,7.119
		C98.301,54.332,102.542,57.513,104.662,54.332z M73.612,33.127c0,0-7.573-10.905-11.663-10.905s-7.725,11.814-7.119,15.298
		C54.83,37.519,63.464,32.067,73.612,33.127z"/>
</svg>
