<svg xmlns="http://www.w3.org/2000/svg" width="128" height="128" viewBox="0 0 128 128"><path d="M111.79 90.899c-1.312 4.81 2.405 12.024 2.405 12.024-5.247 2.405-20.331-6.34-20.331-6.34-16.133-.377-27.26-13.165-27.26-13.165L82.38 68.969c1.789 2.517 8.422 8.594 13.232 8.594 4.81 0 9.838-2.623 10.712-10.056.874-7.433-5.106-11.399-7.074-11.399s-5.652-.276-12.82 5.934c-7.493 6.49-26.234 23.829-26.234 23.829 0 11.805-13.117 15.522-13.117 15.522.219-2.842-1.312-6.559-1.312-6.559-6.121 2.623-17.708 4.81-28.42-2.623C6.635 84.778 7.291 69.912 7.291 69.912l-3.716-6.34 6.121-4.591c1.312-6.34 7.214-12.024 7.214-12.024 6.121-20.987 19.238-22.299 19.238-22.299-.437 8.745 3.279 12.898 3.279 12.898 18.582-.437 29.313 15.519 29.313 15.519L52.475 67.228c-5.028-5.903-14.242-10.14-17.736-10.292-6.341-.276-10.095 4.476-10.201 12.13-.087 6.262 5.552 9.154 8.409 8.96 4.066-.276 4.687-8.409 4.687-8.409s4.243 2.634 4.273 7.444c.013 2.164 4.298-1.246 4.298-1.246L72.22 52.86l-2.405-19.02 19.457 6.121s12.481-6.405 24.922 7.214c3.227 1.059 6.387-3.155 6.387-3.155 2.107 4.478-1.141 11.026-1.141 11.026s15.274 20.836-7.65 35.853z"/></svg>