<svg xmlns="http://www.w3.org/2000/svg" width="128" height="128" viewBox="0 0 128 128"><path d="M101 18.613c-2.505-.668-4.32.346-5.962 2.592-2.97 4.063.778 8.553.778 8.553s1.037-3.888 3.11-3.888 10.108 6.48 10.108 22.29-5.96 21.512-9.07 21.512c-3.11 0-5.876-3.888-4.666-7.516 1.246-3.738-1.296-11.404-5.702-11.922l-.826-4.68s2.316-3.42 1.927-5.817c-.39-2.397-4.176-5.647-4.777-7.715-1.26-4.332-3.214-9.578-7.007-13.216-.51-.488 2.906-2.006.8-4.047-2.105-2.042-9.36-1.668-9.36-1.668-1.867-.613-3.92-.957-6.174-.957-.34-.162-1.41-4.665-2.64-4.114-1.232.552-5.84 6.008-5.84 6.008-7.336 3.568-11.362 11.515-13.245 17.995-.6 2.07-4.38 5.318-4.77 7.715-.388 2.397 1.932 5.817 1.932 5.817l-.824 4.68c-4.406.518-6.947 8.184-5.7 11.922 1.208 3.63-1.556 7.516-4.666 7.516-3.11 0-9.07-5.702-9.07-21.512s8.034-22.29 10.107-22.29c2.073 0 3.11 3.89 3.11 3.89s3.747-4.49.778-8.554c-1.642-2.246-3.457-3.26-5.96-2.592-2.592.69-19.44 11.662-19.18 34.73.156 13.873 3.197 20.56 7.99 25.615 0 0 1.73 2.504 5.098 1.986 3.37-.518 11.965-11.36 24.32-10.15l.432-4.234s1.49-2.203 2.462 0l.13 5.637s7.646 16.716 16.2 20.863l3.368 2.073s1.31.832.194 2.462c-.842 1.23-2.916-.713-2.916-.713s-3.175-2.72-4.34-1.36c-1.167 1.36 1.036 10.172-.78 10.95s-2.59.647-2.915 0c-.324-.65-.713-12.247-.713-12.247s-5.96-18.79-14.968-19.374-16.91 6.934-17.104 12.312 2.72 13.8 10.367 13.737c7.646-.065 8.312-4.523 9.007-7.128.778-2.916.454-7.322-2.073-7.58 0 0-1.036-.195-1.813 2.332 0 0-.583 1.166-1.62 1.23-1.815.114-4.212-1.49-3.5-3.757.845-2.687 2.593-4.73 5.703-3.758 4.147 1.296 7.387 6.22 6.868 11.663-.518 5.443-8.942 9.33-8.035 16.588.907 7.257 4.147 11.404 18.79 11.34C73.01 121.766 83.57 98.116 84.8 89.628s-3.24-24.04-3.24-24.04-.39-2.333 1.944 0c2.333 2.333 4.795 20.864 4.795 20.864l-.26.065s9.59-.26 14.255-1.556c4.665-1.296 17.624-8.553 17.883-31.62.26-23.068-16.587-34.04-19.18-34.73zM64.194 43.04s4.406.584 5.443 3.824c0 0-4.853-.956-5.443-.888-.59-.068-5.443.888-5.443.888 1.037-3.24 5.443-3.823 5.443-3.823zM52.79 51h-8.293s-2.246-6.91-.518-8.985C45.706 39.942 55.555 49 52.79 51zm19.882 5.132c-2.75-4.158-8.476-3.774-8.476-3.774s-5.726-.384-8.476 3.774c-1.358 2.053-2.387-.066-1.728-1.258.603-1.09 3.786-4.9 10.205-4.9s9.602 3.81 10.205 4.9c.656 1.192-.373 3.31-1.73 1.258zM83.892 51H75.6c-2.766-2 7.083-11.058 8.81-8.985C86.14 44.09 83.894 51 83.894 51z"/></svg>