<?xml version="1.0" encoding="UTF-8"?>
<!DOCTYPE svg  PUBLIC '-//W3C//DTD SVG 1.1//EN'  'http://www.w3.org/Graphics/SVG/1.1/DTD/svg11.dtd'>
<svg enable-background="new 0 0 128 128" version="1.1" viewBox="0 0 128 128" xml:space="preserve" xmlns="http://www.w3.org/2000/svg">
	<path d="m59.296 116.18c-1.268 2.651-6.799 4.494-10.833 3.803-10.884-1.866-17.171-7.03-17.171-7.03s-7.03 1.383-11.985-1.498c-10.257-7.952-9.843-15.819-9.027-21.935 0.307-2.305 2.804-5.493 4.763-6.761 4.219-2.73 7.687-1.233 4.687 1.767s-5.269 3.476-5.148 8.221c0.129 5.052 2.19 9.027 5.416 12.715 2.955 3.377 9.164 3.331 8.413 2.766-7.221-5.435-10.065-19.553 8.989-15.404 19.874 4.327 19.937 19.899 1.037 18.631-3.723-0.25 5.101 3.803 11.102 3.803s7.925-5.85 7.107-10.487c-0.182-2.429 0.576-5.493 5.511-7.068 0 0-2.535 0.546-2.768-5.183-5.688 2.728-9.026 0-9.026 0-3.896 0.611-6.546-3.66-6.546-3.66-14.184-0.114-18.275-17.07-15.275-30.708s1.599-18.609-2.358-20.798c-4.14-2.291-8.593 7.409-8.826 12.615-0.24 5.363-3.697 6.976-5.183 0-1.469-6.898 4.366-17.34 10.911-19.093 7.197-1.928 12.272 2.79 13.911 13.093 1.441 9.058-4.91 17.73-2.182 29.458 2.728 11.729 16.093 7.365 16.093 7.365 2.182-0.818 1.905-4.637 1.905-4.637-0.507-10.989-10.633-22.367-11.179-42.551-0.546-20.185 20.428-23.731 22.366-23.731 2.096 0 22.912 3.546 22.367 23.73-0.546 20.185-10.671 31.562-11.179 42.551 0 0-0.278 3.819 1.905 4.637 0 0 13.365 4.364 16.093-7.365s-3.623-20.4-2.182-29.458c1.639-10.302 6.714-15.021 13.911-13.093 6.544 1.753 12.379 12.196 10.911 19.093-1.485 6.976-4.942 5.363-5.183 0-0.233-5.206-4.686-14.906-8.826-12.615-3.957 2.19-5.358 7.16-2.358 20.798s-1.091 30.594-15.275 30.708c0 0-2.65 4.271-6.546 3.66 0 0-3.339 2.728-9.026 0-0.232 5.728-2.768 5.183-2.768 5.183 4.934 1.575 5.692 4.639 5.511 7.068-0.818 4.637 1.106 10.487 7.107 10.487s14.824-4.053 11.102-3.803c-18.9 1.268-18.837-14.303 1.037-18.631 19.053-4.149 16.21 9.969 8.989 15.404-0.752 0.566 5.458 0.612 8.413-2.766 3.227-3.688 5.288-7.664 5.416-12.715 0.121-4.744-2.147-5.22-5.148-8.221-3-3 0.468-4.497 4.687-1.767 1.959 1.268 4.456 4.456 4.763 6.761 0.815 6.116 1.229 13.983-9.027 21.935-4.955 2.881-11.985 1.498-11.985 1.498s-6.288 5.164-17.171 7.03c-4.033 0.691-9.565-1.152-10.833-3.803-1.75-3.66-1.431-10.694-4.704-12.331-3.274 1.637-2.955 8.672-4.705 12.332zm-24.662-8.528c4.509 1.203 11.603 1.266 12.907-2.766 1.268-3.918-5.993-7.721-10.948-8.413-5.024-0.701-8.029-0.269-9.104 1.729-1.613 2.996 1.959 8.067 7.145 9.45zm65.877-9.45c-1.076-1.998-4.08-2.43-9.104-1.729-4.955 0.691-12.216 4.494-10.948 8.413 1.304 4.032 8.398 3.968 12.907 2.766 5.186-1.383 8.758-6.454 7.145-9.45z"/>
</svg>
