<svg xmlns="http://www.w3.org/2000/svg" width="128" height="128" viewBox="0 0 128 128"><path d="M56.167 105H6.605s-2.609-.777 0-5.435c2.609-4.658 30.371-51.627 30.371-51.627s2.236-2.523 4.658-.101 29.253 27.826 29.253 27.826l-25.713 9.352s-3.726 1.515-1.491 4.124C45.919 91.747 56.167 105 56.167 105z"/><path d="M49.337 88.013L68.837 105h11.552l11.179-16.987s1.491-3.99 3.726.109S104.797 105 104.797 105h15.465s3.726-.777 1.677-5.062-18.632-35.047-18.632-35.047-3.011-5.641-6.644-.054L93 68.697v2.515L49.337 88.013z"/><path d="M92.127 68.045l-12.484 4.658-31.302-22.917L64 25.377s4.091-5.403 6.886 0c2.795 5.404 21.241 42.668 21.241 42.668z"/></svg>