<svg xmlns="http://www.w3.org/2000/svg" width="128" height="128" viewBox="0 0 128 128"><path d="M64 11.689l11.582 14.286 2.297 11.601 12.834-12.978 9.186 12.289 5.674 22.559s4.188 2.431 13.915-4.324c0 0 5.404 6.901-10.132 19.195L112.598 90h4.593l.405 11h-4.728l-15.941 15.59L83.148 103H44.852l-13.78 13.59L15.131 101h-4.728l.405-11h4.593l3.242-15.682C3.108 62.024 8.512 55.365 8.512 55.365c9.727 6.755 13.915 4.203 13.915 4.203l5.674-22.619 9.186-12.32 12.834 12.962 2.297-11.609L64 11.689zM71.8 98h5.944c.135-6-2.252-10.429-2.252-10.429s1.9-.373 2.636-.158c.969.282 1.732.828 2.947.377 1.216-.45 2.207-3.035 2.702-3.845.495-.811-2.342-3.326-2.342-3.326 0-1.576 6.575-2.803 6.575-13.61 0-20.624-23.236-20.343-23.236-20.343s-23.236-.298-23.236 20.326c0 10.808 6.575 12.009 6.575 13.586 0 0-2.837 2.47-2.342 3.28.495.811 1.486 3.306 2.702 3.757 1.216.45 1.979-.271 2.947-.553.736-.215 2.636.509 2.636.509S51.671 92 51.806 98h14.59s-.766-5.494 2.769-5.494S71.8 98 71.8 98zm-4.233-25.226l4.098 6.349s7.499-1.742 8.151-7.498c.405-3.58-1.897-3.405-3.738-3.265-2.363.181-7.475 2.433-8.511 4.414zm-13.508-4.413c-1.841-.14-4.143-.315-3.738 3.265.652 5.756 8.151 7.498 8.151 7.498l4.098-6.349c-1.036-1.982-6.148-4.234-8.511-4.414zm11.222 9.002S61.982 78 61.802 87H68.691c-.179-9-3.41-9.637-3.41-9.637z"/></svg>