<svg xmlns="http://www.w3.org/2000/svg" width="128" height="128" viewBox="0 0 128 128"><path d="M97.467 19h14.298C116.934 99 64 117.891 64 117.891S11.066 99 16.235 19h14.258s17.31-8.27 33.668-8.168C80.519 10.935 97.467 19 97.467 19zm-33.36 6.013c-9.165.136-19.14 3.428-26.281 6.126-3.186 1.203-7.487 2.042-7.487 2.042-1.906 53.361 33.768 69.186 33.768 69.186s35.674-15.825 33.768-69.186c0 0-4.301-.838-7.487-2.042-7.141-2.698-17.116-5.989-26.281-6.126zM91.749 62H64.107l-.015 38.388C83.127 90.382 91.749 62 91.749 62zm-55.131-1H62V28.961s-5.374 0-9.594 1.225-13.716 5.01-19.328 5.98c0 0-.679 7.834 3.54 24.834z"/></svg>