<?xml version="1.0" encoding="utf-8"?>
<!DOCTYPE svg PUBLIC "-//W3C//DTD SVG 1.1//EN" "http://www.w3.org/Graphics/SVG/1.1/DTD/svg11.dtd">
<svg version="1.1" xmlns="http://www.w3.org/2000/svg" xmlns:xlink="http://www.w3.org/1999/xlink" x="0px" y="0px" width="128px" height="128px" viewBox="0 0 128 128" enable-background="new 0 0 128 128" xml:space="preserve">
	<path d="M66,9h6v11h12V9h6.992c0,0,3.998,0.071,3.998,2.837c0,4.097,0.095,23.339,0.095,23.339S92.039,44,85.852,44H65.864H41.448
		c-6.187,0-8.4-8.904-8.4-8.904s0.095-18.897,0.095-22.995C33.144,9.157,37.141,9,37.141,9H44v11h11V9H66 M64.722,96H34v-7.082
		c9-9.614,10-25.985,10-25.985V47h21.864H83v15.933c0,0,1,16.372,10,25.985V96H64.722z M64,59.649l-6,6.52V80h7.864H70V66.169
		L64,59.649z M25,102.91c0,0,0,6.568,0,11.208c0,4.64,4.314,4.882,4.314,4.882s66.533,0,70.531,0c3.998,0,4.156-4.668,4.156-4.668
		s0-6.282,0-11.065c0-3.642-5.012-3.267-5.012-3.267h-67.39h-2.284C29.314,100,25,99.833,25,102.91z"/>
</svg>
