<?xml version="1.0" encoding="utf-8"?>
<!DOCTYPE svg PUBLIC "-//W3C//DTD SVG 1.1//EN" "http://www.w3.org/Graphics/SVG/1.1/DTD/svg11.dtd">
<svg version="1.1" xmlns="http://www.w3.org/2000/svg" xmlns:xlink="http://www.w3.org/1999/xlink" x="0px" y="0px" width="128px"
	 height="128px" viewBox="0 0 128 128" enable-background="new 0 0 128 128" xml:space="preserve">
	<path d="M104.876,54.812c6.882-1.761,11.683-6.402,13.924-11.843c1.61-3.91,4.321-10.883-6.562-23.207
		C101.45,7.545,82.95,22.802,82.95,22.802c-9.923-4.961-13.853-4.381-20.006-1.761C54.302,24.723,49.66,36.726,49.66,36.726
		c-2.721-0.16-9.763-1.12-16.805,4.481s-8.269,20.486-8.269,20.486c-2.721-0.16-12.945,1.139-15.898,12.484
		C5.648,85.86,9.466,94.123,20.052,100.905c10.243,6.562,22.406-3.521,25.127-5.282s3.841-0.64,3.841-0.64s1.761,1.761,2.881,3.681
		c0,0,1.44,1.761-0.48,3.681c-2.333,2.333-3.521,3.041-3.521,3.041c-1.395,1.502-1.921,3.201-1.44,4.961
		c0.48,1.761,1.921,3.841,10.243,1.761c4.836-1.209,20.806-8.002,36.01-17.445S116.88,70.496,118,67.775
		c1.12-2.721-1.12-4.641-2.561-5.282c-1.44-0.64-2.881,0.16-5.442,1.761c-2.561,1.6-4.641,0-4.641,0s-3.041-3.041-4.001-4.961
		C100.136,56.855,101.894,55.575,104.876,54.812z M68.439,28.832c7.248-1.953,14.911,3.094,17.115,11.274
		c2.204,8.18-1.885,16.394-9.133,18.347c-7.248,1.953-14.911-3.094-17.115-11.274C57.102,38.999,61.191,30.785,68.439,28.832z
		 M33.443,94.32c-5.84,3.746-13.838,1.697-17.864-4.579c-4.026-6.275-2.168-15.979,3.673-19.725
		c5.84-3.747,13.451-0.117,17.477,6.158C40.754,82.449,39.283,90.573,33.443,94.32z M35.49,63.686
		c-3.23-7.27-0.937-15.345,5.121-18.037c6.058-2.692,13.588,1.02,16.818,8.29c3.23,7.27,0.937,15.345-5.121,18.037
		C46.25,74.668,38.72,70.956,35.49,63.686z M93.833,78.018c-7.169,9.558-12.003,11.363-15.204,12.964
		c-3.201,1.6-15.204,5.602-21.766,0.48c-6.562-5.121-6.242-10.563-6.242-10.563s12.644-6.082,16.165-16.165
		c0,0,12.644,3.521,23.207-6.402C89.992,58.333,100.075,69.696,93.833,78.018z M89.888,36.624
		c-1.181-7.293,3.137-14.059,9.643-15.113c6.506-1.053,12.738,4.005,13.919,11.298c1.181,7.293-3.137,14.059-9.643,15.113
		C97.301,48.975,91.069,43.917,89.888,36.624z"/>
</svg>
