<svg xmlns="http://www.w3.org/2000/svg" width="128" height="128" viewBox="0 0 128 128"><path d="M66 9h6v11h12V9h6.992s3.998.071 3.998 2.837c0 4.097.095 23.339.095 23.339S92.039 44 85.852 44H41.448c-6.187 0-8.4-8.904-8.4-8.904s.095-18.897.095-22.995C33.144 9.157 37.141 9 37.141 9H44v11h11V9h11m-1.278 87H34v-7.082c9-9.614 10-25.985 10-25.985V47h39v15.933s1 16.372 10 25.985V96H64.722zM64 59.649l-6 6.52V80h12V66.169l-6-6.52zM25 102.91v11.208c0 4.64 4.314 4.882 4.314 4.882h70.531c3.998 0 4.156-4.668 4.156-4.668v-11.065c0-3.642-5.012-3.267-5.012-3.267H29.315c-.001 0-4.315-.167-4.315 2.91z"/></svg>